<svg xmlns="http://www.w3.org/2000/svg" viewBox="0 0 512 512">
  <defs>
    <radialGradient id="bg" cx="38%" cy="33%" r="68%">
      <stop offset="0%" stop-color="#4f86f7"/>
      <stop offset="100%" stop-color="#5b21b6"/>
    </radialGradient>
    <clipPath id="circ">
      <circle cx="256" cy="256" r="256"/>
    </clipPath>
  </defs>
  <circle cx="256" cy="256" r="256" fill="url(#bg)"/>
  <g clip-path="url(#circ)">
    <g transform="translate(-30,570) scale(0.06688,-0.06688)" fill="white" stroke="none">
<path
           d="m 2280,7459 c -25,-4 -112,-24 -195,-44 -83,-20 -191,-39 -243,-42 -104,-7 -107,-15 -20,-59 89,-45 170,-55 392,-48 190,6 205,5 266,-16 230,-77 333,-260 301,-533 -15,-129 -164,-730 -576,-2324 l -218,-843 32,-29 c 67,-63 23,-199 -75,-231 -27,-9 -36,-19 -43,-48 -6,-20 -31,-118 -56,-217 -25,-99 -47,-180 -48,-181 -1,-1 -47,9 -102,22 -114,26 -168,30 -183,12 -19,-24 -187,-659 -222,-843 -30,-153 -29,-292 2,-354 25,-51 40,-55 49,-14 45,195 104,435 109,443 8,12 180,-19 180,-32 0,-4 -22,-85 -49,-180 -67,-239 -76,-293 -76,-448 1,-390 231,-691 605,-791 373,-100 709,75 890,465 35,74 100,247 100,265 0,4 -30,13 -67,20 -117,20 -233,62 -380,136 -162,82 -172,80 -120,-25 63,-126 40,-238 -65,-321 -223,-176 -583,25 -583,325 0,109 22,209 44,201 56,-22 145,-35 189,-27 52,8 65,24 77,99 l 7,43 h -64 c -162,1 -256,115 -238,290 19,200 191,308 355,225 27,-13 50,-23 50,-22 2,3 45,164 45,168 0,2 -30,4 -67,4 -168,1 -289,161 -238,314 51,154 261,221 372,118 18,-16 24,-17 28,-6 5,14 67,273 120,499 15,63 31,119 35,123 6,7 86,-5 95,-15 2,-1 -14,-86 -36,-188 -80,-380 -151,-707 -169,-785 -10,-44 -42,-183 -69,-310 -28,-126 -81,-342 -117,-480 -84,-312 -82,-304 -50,-337 40,-39 87,-43 140,-12 19,11 19,13 -8,45 -40,47 -35,84 68,494 46,187 121,494 165,683 45,188 118,496 162,685 45,188 88,369 95,402 39,175 -13,285 -155,326 -42,13 -43,13 -37,48 3,20 6,45 6,56 0,18 7,21 68,21 89,1 133,17 176,64 145,161 71,421 -131,455 -41,6 -41,7 -32,38 5,18 9,45 9,61 0,22 4,27 18,23 91,-26 112,-29 155,-23 92,14 146,90 147,207 0,142 -71,229 -189,229 -36,0 -42,3 -37,18 5,17 76,366 76,375 0,2 21,2 48,0 144,-12 164,166 23,208 l -38,11 18,77 c 10,42 27,120 39,174 17,74 26,97 39,97 94,0 148,84 79,121 -36,19 -123,36 -146,28 -33,-12 -40,-34 -112,-352 -38,-166 -107,-473 -154,-682 -48,-209 -107,-467 -132,-574 -25,-106 -44,-195 -42,-196 2,-2 22,5 45,15 139,62 263,11 263,-107 0,-97 -91,-165 -158,-117 -28,19 -52,65 -52,98 0,49 -89,47 -115,-3 -23,-45 -235,-985 -235,-1043 0,-57 22,-92 72,-113 77,-34 98,-53 98,-90 0,-43 -47,-59 -157,-53 -80,4 -113,24 -139,85 -28,64 -26,74 127,713 72,303 137,577 214,905 109,467 339,1430 355,1487 17,59 47,86 118,103 34,9 66,14 72,10 5,-3 12,11 15,32 4,21 13,73 21,117 65,361 -79,661 -394,820 -116,58 -299,81 -442,55 z m 672,-2366 c 56,-64 10,-193 -67,-193 -92,0 -129,108 -61,176 40,40 101,48 128,17 z M 2680,3947 c 89,-45 95,-214 8,-267 -81,-49 -192,4 -205,98 -16,119 99,218 197,169 z M 1721,2725 c 89,-19 84,-13 65,-77 -9,-29 -36,-132 -61,-228 -25,-96 -48,-180 -50,-186 -3,-11 -167,15 -180,28 -2,2 23,109 56,238 32,129 59,236 59,238 0,6 45,1 111,-13 z"
           id="path5086" />
<path
           d="m 2463,6163 c -21,-79 -49,-180 -208,-748 -138,-495 -191,-679 -295,-1035 -85,-290 -382,-1304 -396,-1352 -5,-19 141,-58 155,-42 7,8 104,382 321,1239 39,154 119,467 177,695 336,1328 332,1310 313,1310 -10,0 -25,2 -33,6 -11,4 -19,-14 -34,-73 z"
           id="path5088" />
<path
           d="m 3524,4646 c -90,-39 -79,-183 30,-408 203,-418 696,-934 1071,-1119 457,-226 488,112 62,676 -414,547 -953,942 -1163,851 z m 278,-217 c 395,-197 1109,-1083 955,-1184 -170,-111 -1098,856 -1110,1156 -3,75 44,83 155,28 z"
           id="path5090" />
<path
           d="m 3512,4048 c -7,-18 -33,-60 -58,-93 -271,-355 -506,-844 -564,-1174 -16,-90 -7,-121 51,-188 56,-64 64,-85 56,-149 -6,-58 -8,-59 -54,-36 -49,25 -66,45 -96,109 -24,52 -25,52 -42,33 -26,-29 -56,-126 -62,-205 -13,-168 155,-240 273,-117 101,105 107,314 9,390 l -25,20 18,76 c 20,88 17,86 73,43 147,-112 179,-306 85,-513 -88,-193 -342,-281 -456,-159 -26,27 -40,32 -40,13 0,-7 -26,-94 -59,-193 l -58,-180 46,-29 c 121,-77 354,-162 472,-173 l 65,-6 31,104 c 71,234 136,458 208,712 80,286 126,419 183,532 121,244 311,426 506,490 17,5 2,24 -96,123 -167,170 -314,361 -417,545 -39,67 -34,65 -49,25 z"
           id="path5092" />
<path
           d="m 4349,2985 c -285,-105 -451,-334 -634,-875 -40,-118 -103,-296 -138,-395 -36,-99 -93,-261 -126,-360 -187,-552 -391,-816 -709,-920 -69,-23 -60,-29 19,-15 116,20 241,76 344,153 205,153 307,317 459,739 25,70 52,144 60,165 8,21 51,139 95,263 287,814 386,984 684,1180 75,50 93,66 80,72 -29,11 -95,8 -134,-7 z"
           id="path5094" />
<path
           d="m 2222,2850 c -90,-55 -76,-187 24,-220 60,-20 102,-6 125,43 58,130 -38,244 -149,177 z"
           id="path5096" />
<path
           d="m 2115,2236 c -110,-49 -110,-220 1,-256 80,-27 191,81 164,158 -34,91 -96,129 -165,98 z"
           id="path5098" />
<path
           d="m 1273,1423 c -26,-5 -27,-12 -12,-85 31,-156 98,-296 203,-426 53,-65 66,-79 66,-68 0,2 -14,21 -31,42 -78,98 -145,293 -156,452 -7,100 -5,98 -70,85 z"
           id="path5100" />
    </g>
  </g>
</svg>